<?xml version="1.0" standalone="no"?>
<!DOCTYPE svg PUBLIC "-//W3C//DTD SVG 20010904//EN"
 "http://www.w3.org/TR/2001/REC-SVG-20010904/DTD/svg10.dtd">
<svg version="1.0" xmlns="http://www.w3.org/2000/svg"
 width="700.000000pt" height="700.000000pt" viewBox="0 0 700.000000 700.000000"
 preserveAspectRatio="xMidYMid meet">
<metadata>
Created by potrace 1.14, written by Peter Selinger 2001-2017
</metadata>
<g transform="translate(0.000000,700.000000) scale(0.100000,-0.100000)"
fill="#000000" stroke="none">
<path d="M3389 6496 c-2 -2 -44 -6 -94 -10 -49 -3 -99 -8 -111 -10 -11 -2 -45
-7 -75 -10 -30 -3 -66 -8 -80 -11 -420 -79 -764 -210 -1071 -409 -51 -33 -99
-65 -108 -72 -8 -7 -53 -43 -100 -80 -350 -278 -625 -686 -776 -1153 -19 -57
-36 -113 -39 -125 -2 -11 -9 -41 -16 -66 -20 -83 -45 -199 -54 -255 -56 -354
-64 -776 -18 -1070 3 -22 7 -51 8 -65 7 -59 48 -247 79 -361 95 -344 243 -675
435 -969 48 -74 194 -276 210 -290 3 -3 33 -36 66 -75 206 -239 463 -452 744
-615 73 -42 293 -150 306 -150 4 0 21 -6 38 -14 136 -61 424 -137 617 -162 30
-4 69 -9 85 -11 71 -9 406 -11 465 -2 36 6 74 12 85 13 112 17 299 78 410 134
160 80 341 226 449 362 94 118 188 325 225 495 17 76 19 86 26 171 11 121 12
149 3 232 -12 108 -31 171 -114 378 -40 100 -77 208 -83 240 -34 195 42 302
389 553 332 240 476 376 613 578 122 182 228 455 252 653 3 25 7 56 10 70 8
39 19 207 18 295 0 195 -43 370 -138 569 -208 432 -607 794 -1106 1001 -187
78 -501 168 -664 189 -16 3 -59 9 -95 15 -36 6 -90 13 -120 16 -30 3 -77 8
-105 11 -62 6 -560 16 -566 10z m406 -4089 c123 -31 211 -81 295 -166 117
-119 173 -261 173 -438 -1 -143 -66 -296 -171 -402 -118 -119 -246 -173 -416
-177 -179 -3 -311 50 -436 176 -138 138 -196 319 -168 520 17 121 90 254 189
343 120 109 252 158 414 152 55 -1 109 -5 120 -8z"/>
</g>
</svg>
