<?xml version="1.0" encoding="utf-8"?>
<!-- Generator: Adobe Illustrator 26.2.1, SVG Export Plug-In . SVG Version: 6.00 Build 0)  -->
<svg version="1.1" id="Layer_1" xmlns="http://www.w3.org/2000/svg" xmlns:xlink="http://www.w3.org/1999/xlink" x="0px" y="0px" width="32px" height="32px" viewBox="0 0 32 32" style="enable-background:new 0 0 32 32;" xml:space="preserve">
  <style type="text/css">
	.st0{fill:url(#SVGID_1_);}
</style>
  <g>

    <linearGradient id="SVGID_1_" gradientUnits="userSpaceOnUse" x1="3.0643" y1="16.3664" x2="29.1088" y2="16.3664" gradientTransform="matrix(-0.9014 0.4331 -0.4331 -0.9014 37.6779 24.1515)">
      <stop offset="0" style="stop-color:#FF00FF" />
      <stop offset="1" style="stop-color:#FF2A65" />
    </linearGradient>
    <path class="st0" d="M20.7,15.8c-1.9,0.5-3.8,1.4-4.2,2.9c-0.8,3.4,7.5,7,6.6,9.8c-0.5,1.5-3.3,2-4.5,2.2c-2.8,0.4-5-0.4-6-0.8
		C8.7,28.2,4,24,3.1,17.8c-0.1-1-0.9-7.1,3.5-11.9c0.7-0.8,4.1-4.4,9-4.3c6.9,0.1,13.1,7.4,11.8,11C27.2,13.3,26.2,15.1,20.7,15.8z" />
    <path d="M10.8,2.2c1.6-0.8,3.3-1.1,4.9-1.1c4.6,0.1,8.7,3.2,10.8,6.2c1.4,2,1.9,4,1.4,5.4c-0.5,1.3-2.1,2.9-7.1,3.5
		c-2.3,0.7-3.6,1.5-3.8,2.6c-0.3,1.5,1.5,3.2,3.4,4.8c1.9,1.7,3.7,3.4,3.2,5c-0.6,1.8-3.6,2.3-4.8,2.5c-3,0.5-5.3-0.5-6.2-0.9
		c-3.9-1.6-8.9-5.9-9.8-12.4C2.5,16.1,2,10.3,6.3,5.6C7.7,4.1,9.2,3,10.8,2.2z M25.1,14.3c1.3-0.6,1.8-1.4,2-1.8
		c0.4-1.2,0-2.9-1.3-4.7c-2-2.8-5.9-5.7-10.1-5.8c-3.1,0-6.2,1.4-8.7,4.2c-4.1,4.4-3.7,10-3.4,11.6c0.9,6.2,5.5,10.2,9.3,11.8
		c0.8,0.3,3,1.2,5.7,0.8c1-0.2,3.8-0.6,4.2-1.9c0.4-1.1-1.3-2.7-3-4.1c-2-1.8-4-3.7-3.6-5.6c0.3-1.4,1.8-2.5,4.4-3.2l0.1,0
		C22.7,15.1,24.1,14.7,25.1,14.3z" />
  </g>
</svg>